<svg width="159" height="90" viewBox="0 0 159 90" fill="none" xmlns="http://www.w3.org/2000/svg">
<g clip-path="url(#clip0_311_62)">
<mask id="mask0_311_62" style="mask-type:luminance" maskUnits="userSpaceOnUse" x="0" y="0" width="159" height="90">
<path d="M158.59 0H0V90H158.59V0Z" fill="white"/>
</mask>
<g mask="url(#mask0_311_62)">
<path d="M75.4 33.19L75.47 33.28C75.47 33.28 75.54 33.31 75.59 33.32C75.64 33.32 75.69 33.34 75.75 33.35L75.8 33.39V33.42L75.81 33.45V33.48L75.76 33.53H75.69L75.61 33.55H74.4L74.31 33.52L74.27 33.44C74.27 33.44 74.29 33.36 74.34 33.34C74.38 33.32 74.43 33.31 74.48 33.3C74.53 33.29 74.58 33.27 74.63 33.25C74.68 33.23 74.71 33.19 74.72 33.14C74.73 33.07 74.74 33 74.74 32.94C74.74 32.88 74.74 32.8 74.74 32.73V31.28L74.71 31.18L74.65 31.11L74.55 31.08H74.45H74.39H74.32L74.26 31.04L74.23 30.98V30.94C74.23 30.94 74.3 30.89 74.36 30.87C74.42 30.85 74.49 30.82 74.57 30.8C74.65 30.78 74.72 30.75 74.79 30.73C74.86 30.71 74.91 30.7 74.93 30.68C74.98 30.66 75.03 30.63 75.09 30.59C75.15 30.55 75.2 30.53 75.26 30.53L75.34 30.57L75.36 30.67V32.98C75.36 33.07 75.37 33.13 75.39 33.17" fill="#12284B"/>
</g>
<mask id="mask1_311_62" style="mask-type:luminance" maskUnits="userSpaceOnUse" x="0" y="0" width="159" height="90">
<path d="M158.59 0H0V90H158.59V0Z" fill="white"/>
</mask>
<g mask="url(#mask1_311_62)">
<path d="M77.55 30.87C77.49 30.92 77.44 30.98 77.41 31.05C77.37 31.12 77.35 31.2 77.34 31.29C77.33 31.38 77.32 31.45 77.32 31.52C77.32 31.59 77.32 31.67 77.34 31.74C77.35 31.82 77.38 31.89 77.41 31.96C77.45 32.02 77.49 32.08 77.55 32.12C77.61 32.16 77.68 32.19 77.77 32.19C77.87 32.19 77.94 32.17 78.01 32.12C78.07 32.08 78.12 32.02 78.16 31.95C78.2 31.88 78.22 31.81 78.24 31.73C78.26 31.65 78.26 31.57 78.26 31.49C78.26 31.42 78.26 31.34 78.24 31.26C78.22 31.18 78.2 31.1 78.16 31.03C78.12 30.96 78.07 30.91 78.01 30.86C77.95 30.81 77.87 30.79 77.79 30.79C77.71 30.79 77.62 30.81 77.56 30.86M77.32 32.4C77.21 32.36 77.11 32.29 77.02 32.21C76.94 32.13 76.87 32.03 76.82 31.92C76.77 31.81 76.75 31.69 76.75 31.55C76.75 31.4 76.78 31.26 76.83 31.14C76.88 31.01 76.96 30.91 77.05 30.81C77.14 30.71 77.26 30.64 77.38 30.59C77.51 30.54 77.65 30.51 77.8 30.51C77.98 30.51 78.13 30.55 78.26 30.62C78.39 30.7 78.5 30.79 78.59 30.92C78.68 31.05 78.74 31.18 78.78 31.34C78.82 31.49 78.85 31.65 78.85 31.81C78.85 32.03 78.81 32.25 78.73 32.46C78.65 32.67 78.54 32.86 78.4 33.03C78.26 33.2 78.09 33.33 77.89 33.43C77.7 33.53 77.48 33.58 77.24 33.58H77.18L77.1 33.57L77.04 33.54L77.02 33.48L77.07 33.39L77.18 33.36C77.34 33.34 77.48 33.3 77.59 33.24C77.7 33.18 77.8 33.1 77.88 33C77.96 32.9 78.03 32.79 78.07 32.67C78.12 32.54 78.16 32.41 78.19 32.26C78.11 32.32 78.03 32.37 77.95 32.4C77.87 32.44 77.78 32.46 77.68 32.46C77.55 32.46 77.43 32.44 77.32 32.39" fill="#12284B"/>
</g>
<mask id="mask2_311_62" style="mask-type:luminance" maskUnits="userSpaceOnUse" x="0" y="0" width="159" height="90">
<path d="M158.59 0H0V90H158.59V0Z" fill="white"/>
</mask>
<g mask="url(#mask2_311_62)">
<path d="M80.03 31.11C79.97 31.14 79.93 31.17 79.89 31.2L79.79 31.29L79.69 31.33L79.63 31.3L79.59 31.24V31.17V31.09V30.81L79.61 30.71L79.64 30.66L79.69 30.63C79.69 30.63 79.79 30.61 79.84 30.6C79.89 30.6 79.94 30.6 79.99 30.6H81.5L81.56 30.62L81.62 30.65L81.65 30.69L81.63 30.79L81.59 30.89C81.45 31.23 81.31 31.58 81.17 31.92C81.03 32.26 80.9 32.61 80.78 32.97C80.78 33 80.76 33.05 80.75 33.11C80.74 33.17 80.72 33.24 80.7 33.3C80.68 33.37 80.66 33.42 80.63 33.48C80.61 33.53 80.57 33.56 80.54 33.58C80.45 33.6 80.36 33.61 80.27 33.61H80.15L80.03 33.59L79.95 33.56L79.91 33.48C79.91 33.48 79.93 33.42 79.96 33.35C79.99 33.28 80.03 33.19 80.08 33.09C80.13 32.99 80.19 32.87 80.26 32.74C80.33 32.61 80.4 32.48 80.47 32.34C80.54 32.2 80.61 32.07 80.69 31.93C80.76 31.79 80.83 31.67 80.89 31.55C80.95 31.43 81 31.33 81.05 31.25C81.09 31.17 81.13 31.1 81.15 31.07H80.3C80.2 31.07 80.13 31.08 80.07 31.11" fill="#12284B"/>
</g>
<mask id="mask3_311_62" style="mask-type:luminance" maskUnits="userSpaceOnUse" x="0" y="0" width="159" height="90">
<path d="M158.59 0H0V90H158.59V0Z" fill="white"/>
</mask>
<g mask="url(#mask3_311_62)">
<path d="M82.29 33.52L82.26 33.44C82.26 33.33 82.3 33.23 82.36 33.12C82.43 33.02 82.52 32.91 82.62 32.8C82.73 32.69 82.84 32.58 82.96 32.47C83.08 32.35 83.2 32.24 83.3 32.11C83.4 31.99 83.49 31.85 83.56 31.71C83.63 31.57 83.66 31.42 83.66 31.26C83.66 31.14 83.63 31.04 83.56 30.95C83.49 30.86 83.39 30.81 83.26 30.81C83.21 30.81 83.16 30.81 83.12 30.84C83.07 30.86 83.03 30.89 83 30.92C82.96 30.95 82.94 30.99 82.92 31.04C82.9 31.08 82.89 31.13 82.89 31.19C82.89 31.25 82.9 31.31 82.93 31.36C82.96 31.41 82.97 31.48 82.97 31.54C82.97 31.61 82.95 31.66 82.9 31.7C82.85 31.74 82.8 31.76 82.73 31.76C82.61 31.76 82.52 31.72 82.45 31.65C82.38 31.57 82.34 31.48 82.34 31.37C82.34 31.24 82.37 31.13 82.43 31.02C82.49 30.92 82.57 30.83 82.67 30.76C82.77 30.69 82.87 30.63 82.99 30.59C83.11 30.55 83.22 30.53 83.34 30.53C83.46 30.53 83.56 30.55 83.67 30.58C83.78 30.61 83.88 30.66 83.97 30.73C84.06 30.8 84.13 30.88 84.19 30.97C84.25 31.07 84.27 31.17 84.27 31.3C84.27 31.43 84.25 31.53 84.2 31.65C84.16 31.76 84.09 31.87 84.02 31.98C83.94 32.08 83.86 32.19 83.76 32.28C83.66 32.38 83.57 32.47 83.47 32.56C83.37 32.65 83.27 32.74 83.18 32.83C83.09 32.92 83.01 33.01 82.94 33.09H83.91L83.96 33.08L84.04 33.04L84.1 32.98L84.17 32.92L84.25 32.9L84.34 32.96V33.1C84.32 33.17 84.3 33.22 84.3 33.28C84.3 33.34 84.28 33.38 84.26 33.42L84.17 33.51C84.17 33.51 84.06 33.54 83.97 33.54H82.35L82.28 33.5L82.29 33.52Z" fill="#12284B"/>
</g>
<mask id="mask4_311_62" style="mask-type:luminance" maskUnits="userSpaceOnUse" x="0" y="0" width="159" height="90">
<path d="M158.59 0H0V90H158.59V0Z" fill="white"/>
</mask>
<g mask="url(#mask4_311_62)">
<path d="M53.73 88.33L54.35 88.28C54.38 88.53 54.45 88.73 54.55 88.89C54.66 89.05 54.82 89.18 55.05 89.27C55.28 89.37 55.53 89.42 55.81 89.42C56.06 89.42 56.28 89.38 56.47 89.31C56.66 89.24 56.8 89.14 56.9 89.01C56.99 88.88 57.04 88.74 57.04 88.59C57.04 88.44 57 88.3 56.91 88.18C56.82 88.06 56.67 87.97 56.46 87.89C56.33 87.84 56.04 87.76 55.58 87.65C55.13 87.54 54.81 87.44 54.63 87.34C54.39 87.22 54.22 87.06 54.1 86.88C53.98 86.7 53.93 86.49 53.93 86.26C53.93 86.01 54 85.78 54.14 85.56C54.28 85.34 54.49 85.18 54.76 85.07C55.03 84.96 55.33 84.9 55.67 84.9C56.04 84.9 56.36 84.96 56.64 85.08C56.92 85.2 57.13 85.37 57.29 85.6C57.44 85.83 57.52 86.09 57.53 86.38L56.9 86.43C56.87 86.12 56.75 85.88 56.56 85.72C56.37 85.56 56.08 85.48 55.7 85.48C55.32 85.48 55.02 85.55 54.84 85.7C54.66 85.84 54.57 86.02 54.57 86.22C54.57 86.4 54.63 86.54 54.76 86.66C54.89 86.78 55.22 86.89 55.75 87.01C56.28 87.13 56.65 87.24 56.84 87.33C57.13 87.46 57.34 87.63 57.48 87.83C57.62 88.03 57.69 88.27 57.69 88.53C57.69 88.79 57.61 89.04 57.46 89.27C57.31 89.5 57.09 89.68 56.81 89.81C56.53 89.94 56.21 90 55.86 90C55.41 90 55.04 89.93 54.74 89.8C54.44 89.67 54.2 89.47 54.03 89.21C53.86 88.95 53.77 88.65 53.76 88.32" fill="#12284B"/>
</g>
<path d="M68.71 84.97V87H66.14V84.97H65.48V89.92H66.14V87.59H68.71V89.92H69.36V84.97H68.71Z" fill="#12284B"/>
<mask id="mask5_311_62" style="mask-type:luminance" maskUnits="userSpaceOnUse" x="0" y="0" width="159" height="90">
<path d="M158.59 0H0V90H158.59V0Z" fill="white"/>
</mask>
<g mask="url(#mask5_311_62)">
<path d="M77.83 87.52C77.83 88.12 77.99 88.58 78.31 88.93C78.63 89.27 79.03 89.44 79.52 89.44C80.01 89.44 80.42 89.27 80.73 88.92C81.05 88.57 81.21 88.08 81.21 87.45C81.21 87.05 81.14 86.7 81.01 86.4C80.87 86.1 80.68 85.87 80.41 85.7C80.15 85.54 79.85 85.45 79.53 85.45C79.07 85.45 78.67 85.61 78.33 85.93C78 86.25 77.83 86.78 77.83 87.52ZM77.16 87.51C77.16 86.69 77.38 86.05 77.82 85.58C78.26 85.12 78.83 84.88 79.53 84.88C79.99 84.88 80.4 84.99 80.76 85.21C81.13 85.43 81.41 85.73 81.6 86.12C81.79 86.51 81.89 86.95 81.89 87.45C81.89 87.95 81.79 88.4 81.59 88.8C81.39 89.19 81.1 89.49 80.73 89.7C80.36 89.9 79.96 90 79.53 90C79.06 90 78.65 89.89 78.28 89.66C77.91 89.43 77.64 89.13 77.45 88.74C77.26 88.35 77.17 87.94 77.17 87.51" fill="#12284B"/>
</g>
<path d="M89.65 84.97V89.92H93.34V89.33H90.3V87.65H93.04V87.07H90.3V85.56H93.22V84.97H89.65Z" fill="#12284B"/>
<mask id="mask6_311_62" style="mask-type:luminance" maskUnits="userSpaceOnUse" x="0" y="0" width="159" height="90">
<path d="M158.59 0H0V90H158.59V0Z" fill="white"/>
</mask>
<g mask="url(#mask6_311_62)">
<path d="M100.92 88.33L101.54 88.28C101.57 88.53 101.64 88.73 101.74 88.89C101.85 89.05 102.01 89.18 102.24 89.27C102.47 89.37 102.72 89.42 103 89.42C103.25 89.42 103.47 89.38 103.66 89.31C103.85 89.24 103.99 89.14 104.08 89.01C104.17 88.88 104.22 88.74 104.22 88.59C104.22 88.44 104.18 88.3 104.09 88.18C104 88.06 103.85 87.97 103.64 87.89C103.51 87.84 103.21 87.76 102.76 87.65C102.31 87.54 101.99 87.44 101.81 87.34C101.57 87.22 101.4 87.06 101.28 86.88C101.16 86.7 101.11 86.49 101.11 86.26C101.11 86.01 101.18 85.78 101.32 85.56C101.46 85.34 101.67 85.18 101.94 85.07C102.21 84.96 102.51 84.9 102.85 84.9C103.22 84.9 103.54 84.96 103.82 85.08C104.1 85.2 104.31 85.37 104.47 85.6C104.62 85.83 104.7 86.09 104.71 86.38L104.08 86.43C104.05 86.12 103.93 85.88 103.74 85.72C103.54 85.56 103.26 85.48 102.88 85.48C102.5 85.48 102.2 85.55 102.02 85.7C101.84 85.85 101.75 86.02 101.75 86.22C101.75 86.4 101.81 86.54 101.94 86.66C102.07 86.78 102.39 86.89 102.93 87.01C103.46 87.13 103.83 87.24 104.02 87.33C104.31 87.46 104.52 87.63 104.66 87.83C104.8 88.03 104.87 88.27 104.87 88.53C104.87 88.79 104.79 89.04 104.64 89.27C104.49 89.5 104.27 89.68 103.99 89.81C103.71 89.94 103.39 90 103.04 90C102.59 90 102.22 89.93 101.92 89.8C101.62 89.67 101.38 89.47 101.21 89.21C101.04 88.95 100.95 88.65 100.94 88.32" fill="#12284B"/>
</g>
<path d="M0 57.97V72.71H23.58V69.76H2.95V66.82H23.58V63.87H2.95V60.92H23.58V57.97H0Z" fill="#12284B"/>
<path d="M41.86 61.98V72.71H38.91V56.91L59.54 68.7V57.97H62.49V73.77L41.86 61.98Z" fill="#12284B"/>
<path d="M89.61 73.48L77.2 59.3L79.44 57.35L89.61 69L99.78 57.35L102.02 59.3L89.61 73.48Z" fill="#12284B"/>
<path d="M119.68 57.97H116.73V72.71H119.68V57.97Z" fill="#12284B"/>
<path d="M135.01 57.97V72.71H158.59V69.76H137.96V66.82H158.59V63.87H137.96V60.92H158.59V57.97H135.01Z" fill="#12284B"/>
<mask id="mask7_311_62" style="mask-type:luminance" maskUnits="userSpaceOnUse" x="0" y="0" width="159" height="90">
<path d="M158.59 0H0V90H158.59V0Z" fill="white"/>
</mask>
<g mask="url(#mask7_311_62)">
<path d="M79.29 0C68.51 0 59.74 8.77 59.74 19.55C59.74 30.33 68.51 39.09 79.29 39.09C90.07 39.09 98.83 30.32 98.83 19.55C98.83 8.78 90.07 0 79.29 0ZM79.29 37.4C69.45 37.4 61.44 29.39 61.44 19.55C61.44 9.71 69.45 1.69 79.29 1.69C89.13 1.69 97.14 9.7 97.14 19.54C97.14 29.38 89.13 37.39 79.29 37.39" fill="#95989E"/>
</g>
<mask id="mask8_311_62" style="mask-type:luminance" maskUnits="userSpaceOnUse" x="0" y="0" width="159" height="90">
<path d="M158.59 0H0V90H158.59V0Z" fill="white"/>
</mask>
<g mask="url(#mask8_311_62)">
<path d="M68.46 17.49V30.42H70.19C70.32 30.42 70.44 30.34 70.49 30.23L73.57 23.33L72.45 22.05L70.02 27.5V19.28L68.47 17.51L68.46 17.49Z" fill="#95989E"/>
</g>
<mask id="mask9_311_62" style="mask-type:luminance" maskUnits="userSpaceOnUse" x="0" y="0" width="159" height="90">
<path d="M158.59 0H0V90H158.59V0Z" fill="white"/>
</mask>
<g mask="url(#mask9_311_62)">
<path d="M90.01 17.49L88.46 19.26V27.48L86.03 22.03L84.91 23.31L87.99 30.21C88.04 30.33 88.16 30.4 88.29 30.4H90.02V17.47L90.01 17.49Z" fill="#95989E"/>
</g>
<mask id="mask10_311_62" style="mask-type:luminance" maskUnits="userSpaceOnUse" x="0" y="0" width="159" height="90">
<path d="M158.59 0H0V90H158.59V0Z" fill="white"/>
</mask>
<g mask="url(#mask10_311_62)">
<path d="M79.25 7.07001C78 7.07001 76.99 8.08001 76.99 9.33001C76.99 9.46001 77 9.58001 77.02 9.71001V9.72001C77.09 10.1 77.25 10.45 77.48 10.74L74.72 16.92L75.84 18.2L78.81 11.55L78.87 11.57C78.99 11.59 79.12 11.6 79.25 11.6C79.39 11.6 79.52 11.58 79.65 11.56L82.61 18.21L83.73 16.93L80.99 10.77C81.4 10.27 81.58 9.61001 81.48 8.96001C81.39 8.42001 81.1 7.95001 80.7 7.61001L80.66 7.58001C80.66 7.58001 80.56 7.50001 80.51 7.47001L80.42 7.41001C80.34 7.36001 80.27 7.32001 80.18 7.28001C80.14 7.26001 80.09 7.24001 80.05 7.22001C80.01 7.20001 79.96 7.19001 79.92 7.17001C79.84 7.14001 79.75 7.12001 79.66 7.10001H79.63L79.57 7.09001C79.5 7.08001 79.43 7.07001 79.35 7.07001H79.32H79.24H79.25ZM79.25 10.05C78.85 10.05 78.52 9.73001 78.52 9.33001C78.52 8.93001 78.85 8.61001 79.25 8.61001C79.65 8.61001 79.97 8.93001 79.97 9.33001C79.97 9.73001 79.64 10.05 79.25 10.05Z" fill="#95989E"/>
</g>
<mask id="mask11_311_62" style="mask-type:luminance" maskUnits="userSpaceOnUse" x="0" y="0" width="159" height="90">
<path d="M158.59 0H0V90H158.59V0Z" fill="white"/>
</mask>
<g mask="url(#mask11_311_62)">
<path d="M90.04 14.53C89.64 14.53 89.32 14.21 89.32 13.81C89.32 13.41 89.64 13.09 90.04 13.09C90.44 13.09 90.76 13.41 90.76 13.81C90.76 14.21 90.44 14.53 90.04 14.53ZM68.53 14.53C68.13 14.53 67.81 14.21 67.81 13.81C67.81 13.41 68.13 13.09 68.53 13.09C68.93 13.09 69.25 13.41 69.25 13.81C69.25 14.21 68.93 14.53 68.53 14.53ZM90.04 11.54C88.79 11.54 87.77 12.56 87.77 13.81C87.77 13.99 87.79 14.17 87.84 14.34L79.75 23.6C79.52 23.86 79.11 23.86 78.88 23.6L70.75 14.29L70.73 14.27C70.79 13.99 70.8 13.71 70.75 13.42C70.6 12.48 69.83 11.72 68.89 11.56C68.1 11.43 67.3 11.73 66.78 12.33C66.35 12.84 66.16 13.51 66.27 14.17C66.42 15.11 67.19 15.87 68.13 16.03C68.26 16.05 68.38 16.06 68.51 16.06C68.57 16.06 68.64 16.06 68.7 16.05L78.85 27.66C79.08 27.93 79.5 27.93 79.74 27.66L89.89 16.06H90.01C90.09 16.06 90.18 16.06 90.26 16.05C90.34 16.05 90.41 16.03 90.49 16.01H90.54C90.6 15.98 90.66 15.97 90.71 15.95L90.78 15.92C90.78 15.92 90.88 15.88 90.92 15.86L91.01 15.82L91.13 15.76L91.22 15.7L91.32 15.63L91.42 15.56L91.5 15.49L91.59 15.41L91.66 15.33L91.73 15.25H91.74C91.81 15.15 91.88 15.06 91.93 14.96L91.95 14.93C92.15 14.59 92.26 14.2 92.26 13.78C92.26 12.53 91.25 11.51 89.99 11.51" fill="#12284B"/>
</g>
</g>
<defs>
<clipPath id="clip0_311_62">
<rect width="158.59" height="90" fill="white"/>
</clipPath>
</defs>
</svg>
