<svg id="logo_novitron-colorful-original" xmlns="http://www.w3.org/2000/svg" width="213.728" height="38.713" viewBox="0 0 213.728 38.713">
  <g id="Group_1710" data-name="Group 1710" transform="translate(47.975 6.371)">
    <path id="Path_5771-2" data-name="Path 5771-2" d="M376.056,162.76a7.912,7.912,0,0,1,6.481,2.716q2.236,2.716,1.569,7.455l-2.13,15.158h-5.331l2.053-14.615a5.167,5.167,0,0,0-.884-4.246,4.78,4.78,0,0,0-3.838-1.481,6.964,6.964,0,0,0-4.789,1.753,8.459,8.459,0,0,0-2.482,5.357l-1.858,13.232h-5.331l3.469-24.687h5.331l-.444,3.16A9.778,9.778,0,0,1,376.056,162.76Z" transform="translate(-359.516 -162.76)" fill="#da001a"/>
    <path id="Path_5772-2" data-name="Path 5772-2" d="M428.432,188.733a10.959,10.959,0,0,1-11.21-12.984,15.333,15.333,0,0,1,14.86-12.986,10.961,10.961,0,0,1,8.73,3.753,11.085,11.085,0,0,1,2.48,9.233,15.282,15.282,0,0,1-14.86,12.984Zm-4.44-7.407a6.462,6.462,0,0,0,5.168,2.222,8.539,8.539,0,0,0,5.793-2.222,8.823,8.823,0,0,0,3.005-5.579,6.725,6.725,0,0,0-1.437-5.579,6.459,6.459,0,0,0-5.169-2.222,8.535,8.535,0,0,0-5.792,2.222,8.823,8.823,0,0,0-3.006,5.579A6.718,6.718,0,0,0,423.993,181.326Z" transform="translate(-391.151 -162.762)" fill="#da001a"/>
    <path id="Path_5773-2" data-name="Path 5773-2" d="M495.448,164.187h5.826l-13.1,24.687h-6.172l-6.156-24.687h5.826L485.945,183Z" transform="translate(-423.454 -163.544)" fill="#da001a"/>
    <path id="Path_5774-2" data-name="Path 5774-2" d="M591.243,167.792a8.888,8.888,0,0,1,8.249-4.591l-.812,5.777a8.757,8.757,0,0,0-5.537,1.456,7.365,7.365,0,0,0-3.038,5.456l-1.748,12.442h-5.331l3.469-24.687h5.331Z" transform="translate(-482.358 -163.002)" fill="#da001a"/>
    <path id="Path_5775-2" data-name="Path 5775-2" d="M624.324,188.733a10.959,10.959,0,0,1-11.209-12.984,15.332,15.332,0,0,1,14.859-12.986,10.963,10.963,0,0,1,8.73,3.753,11.087,11.087,0,0,1,2.479,9.233,15.282,15.282,0,0,1-14.86,12.984Zm-4.439-7.407a6.462,6.462,0,0,0,5.168,2.222,8.539,8.539,0,0,0,5.793-2.222,8.822,8.822,0,0,0,3.005-5.579,6.721,6.721,0,0,0-1.438-5.579,6.46,6.46,0,0,0-5.168-2.222,8.536,8.536,0,0,0-5.792,2.222,8.822,8.822,0,0,0-3.005,5.579,6.715,6.715,0,0,0,1.438,5.579Z" transform="translate(-498.815 -162.762)" fill="#da001a"/>
    <path id="Path_5776-2" data-name="Path 5776-2" d="M689.137,162.76a7.91,7.91,0,0,1,6.481,2.716q2.236,2.716,1.57,7.455l-2.129,15.157h-5.331l2.054-14.615a5.169,5.169,0,0,0-.883-4.246,4.779,4.779,0,0,0-3.839-1.481,6.962,6.962,0,0,0-4.789,1.752,8.454,8.454,0,0,0-2.482,5.357l-1.858,13.232H672.6l3.469-24.687H681.4l-.445,3.16A9.776,9.776,0,0,1,689.137,162.76Z" transform="translate(-531.588 -162.76)" fill="#da001a"/>
    <path id="Path_5777-2" data-name="Path 5777-2" d="M526.57,188.874H531.9l3.469-24.687h-5.331Z" transform="translate(-451.33 -163.544)" fill="#da001a"/>
    <path id="Path_5778-2" data-name="Path 5778-2" d="M558.4,164.081H553.07l-.007.047H548.52l-.722,5.135h4.543l-1.666,11.85q-.68,4.839,1.733,6.641t8.64,1.062l.672-4.791a33.688,33.688,0,0,1-3.385.025,2.71,2.71,0,0,1-1.946-.74,2.678,2.678,0,0,1-.381-2.2l1.665-11.85h6.124l.722-5.135h-6.124Z" transform="translate(-462.997 -163.486)" fill="#da001a"/>
  </g>
  <g id="Group_1742" data-name="Group 1742" transform="translate(0)">
    <g id="Group_1711" data-name="Group 1711" transform="translate(0)">
      <path id="Path_6441" data-name="Path 6441" d="M279.535,185.967a10.1,10.1,0,0,0-10.7-9.452,6.394,6.394,0,0,0-5.986,6.778,6.4,6.4,0,0,1,2.877,8.573,10.1,10.1,0,0,1-13.537,4.543,15.918,15.918,0,0,1-8.653-11.85,19.355,19.355,0,0,0,30,14.877A15.918,15.918,0,0,0,279.535,185.967Z" transform="translate(-243.493 -163.938)" fill="#af0015"/>
      <path id="Path_6442" data-name="Path 6442" d="M249.107,154.281a19.308,19.308,0,0,0-5.624,14.955,15.918,15.918,0,0,0,8.653,11.85,10.1,10.1,0,0,0,13.537-4.543,6.4,6.4,0,0,0-2.877-8.573,6.394,6.394,0,0,1-8.863-1.795,10.1,10.1,0,0,1,2.834-13.994,15.918,15.918,0,0,1,14.632-1.552A19.363,19.363,0,0,0,249.107,154.281Z" transform="translate(-243.442 -148.614)" fill="rgba(237,46,0,0.87)"/>
      <path id="Path_6443" data-name="Path 6443" d="M267.515,153.292a10.1,10.1,0,0,0-2.834,13.994,6.394,6.394,0,0,0,8.863,1.795,6.394,6.394,0,0,1,5.986-6.778,10.1,10.1,0,0,1,10.7,9.452,15.918,15.918,0,0,1-6,13.469,19.36,19.36,0,0,0-2.086-33.485A15.918,15.918,0,0,0,267.515,153.292Z" transform="translate(-254.19 -149.726)" fill="#da001a"/>
    </g>
    <path id="Path_6444" data-name="Path 6444" d="M282.2,175.439a8.224,8.224,0,0,1,0,11.631h0a8.224,8.224,0,1,1-11.631-11.631l4.674-4.674a1.624,1.624,0,0,1,2.3,0Z" transform="translate(-257.027 -160.527)" fill="#fff"/>
  </g>
</svg>
