<?xml version="1.0" encoding="UTF-8"?>
<svg id="Layer_1" data-name="Layer 1" xmlns="http://www.w3.org/2000/svg" viewBox="0 0 207 66">
  <defs>
    <style>
      .cls-1 {
        fill: #1780d9;
        stroke-width: 0px;
      }
    </style>
  </defs>
  <g>
    <path class="cls-1" d="M58.26,49.08c0,7.19-2.33,10.78-13.67,10.78s-13.44-3.59-13.44-10.78v-13.41h7.33v12.89c0,3.52,0,5.18,6.11,5.18s6.27-1.84,6.27-5.18v-12.89h7.4v13.41Z"/>
    <path class="cls-1" d="M123.99,59.46l3.57-6.12h6.42c1.42,0,1.55,0,2.69.07-.64-.85-6.18-9.48-6.18-9.48l-9.63,15.53h-8.2l13.2-21.52c1-1.39,2.45-2.67,4.77-2.67s3.66,1.17,4.7,2.67l13.33,21.52h-24.67Z"/>
    <path class="cls-1" d="M112.28,42.05v-6.19h-19.56c-3.93,0-7.11,3.18-7.11,7.11h0c0,3.93,3.18,7.11,7.11,7.11h12.39c.93,0,1.69.76,1.69,1.69h0c0,.93-.76,1.69-1.69,1.69h-18.79v6.19h19.52c3.95,0,7.16-3.2,7.16-7.16h0c0-3.95-3.2-7.16-7.16-7.16h-12.39c-.91,0-1.65-.74-1.65-1.65h0c0-.91.74-1.65,1.65-1.65h18.84Z"/>
    <path class="cls-1" d="M18.3,35.66H0v6.08h17.08c1.33,0,2.56.89,2.82,2.2.36,1.78-1,3.35-2.72,3.35H0v12.17h7.33v-4.37l-1.72-1.72h12.89c5.16,0,9.28-4.4,8.82-9.66-.39-4.45-4.57-8.06-9.03-8.06Z"/>
    <path class="cls-1" d="M172.05,52.71c3.22-1.33,5.49-4.49,5.49-8.19h0c0-4.89-3.97-8.86-8.86-8.86h-17.47v6.08h16.04c1.33,0,2.56.89,2.82,2.2.36,1.78-1,3.35-2.72,3.35h-16.15v12.17h7.33v-4.62l-1.46-1.46h6.98l5.03,6.08h9.15l-6.2-6.75Z"/>
    <polygon class="cls-1" points="70.86 53.35 69.4 54.81 69.41 35.66 62.04 35.66 62.04 59.46 83.01 59.46 83.01 53.35 70.86 53.35"/>
  </g>
  <g>
    <path class="cls-1" d="M207,28.23v-5.81c-8.88-.03-16.09-7.24-16.12-16.12h-5.81c.08,12.06,9.88,21.85,21.93,21.93Z"/>
    <path class="cls-1" d="M182.07,15.83c-2.88,3.99-7.57,6.6-12.86,6.6h-.27v5.81h.27c8.74,0,15.85,7.11,15.85,15.85v.27h5.81v-.27c0-5.29,2.6-9.97,6.6-12.86-7.05-2.73-12.67-8.35-15.4-15.4Z"/>
  </g>
</svg>