<svg id="Layer_1" data-name="Layer 1" xmlns="http://www.w3.org/2000/svg" xmlns:xlink="http://www.w3.org/1999/xlink" viewBox="0 0 639.83 291.47"><defs><style>.cls-1{fill:#4cc3d2;}.cls-2{fill:#6166ae;}.cls-3{fill:#623588;}.cls-4{fill:#39b3e5;}.cls-5{fill:#5bbfd6;}.cls-6{fill:#00c1f2;}.cls-7{fill:#602f7e;}.cls-8{fill:url(#linear-gradient);}</style><linearGradient id="linear-gradient" y1="202.03" x2="639.81" y2="202.03" gradientUnits="userSpaceOnUse"><stop offset="0" stop-color="#5bbfd6"/><stop offset="1" stop-color="#602f7e"/></linearGradient></defs><rect class="cls-1" x="269.92" y="17.92" width="37.77" height="35.44"/><rect class="cls-2" x="293.48" y="3.46" width="53.18" height="49.9"/><rect class="cls-3" x="320.07" y="21" width="49.84" height="32.36"/><path class="cls-4" d="M131,87.34h49.94v13.45H145.38v13h27.85v13H145.38v14.41h36.49v13.44H131Z"/><polygon class="cls-5" points="27.13 154.58 41.55 154.58 41.55 127.11 68.67 87.34 51.57 87.34 34.43 112.6 17.11 87.34 0.01 87.34 27.13 127.11 27.13 154.58"/><polygon class="cls-3" points="357.09 102.11 374.91 102.11 374.91 154.57 388.51 154.57 388.51 102.11 406.33 102.11 406.33 87.34 357.09 87.34 357.09 102.11"/><path class="cls-3" d="M288.94,118.84c-2.9-2.78-7.06-5-12.39-6.71l-12.61,11.13c1.26.37,2.58.73,4,1.07,5.82,1.42,9.69,2.83,11.5,4.19a4.69,4.69,0,0,1,2.12,4.44V133a6.71,6.71,0,0,1-2.9,5.55c-2,1.47-4.82,2.2-8.42,2.13-5.93-.12-10.74-2.8-14.69-8.18l-.81-1.11-.17.12-10.46,9.24c6.58,9.14,15.24,13.78,25.74,13.78,7.89,0,14.15-2,18.61-6a20.05,20.05,0,0,0,6.88-15.26h0v0A19.73,19.73,0,0,0,288.94,118.84Z"/><path class="cls-2" d="M268.28,85.53h-.07c-6.67,0-12.19,2-16.4,5.8s-6.36,8.44-6.23,13.51a16.66,16.66,0,0,0,4.77,11.52c2.58,2.72,7,5,13.6,6.91l3.27-2.85,9.37-8.27a63.76,63.76,0,0,0-7.09-1.78,24.85,24.85,0,0,1-7.77-2.61,8.24,8.24,0,0,1-.69-.48,3.39,3.39,0,0,1-1-1.08,3.09,3.09,0,0,1-.17-.29c0-.06-.05-.12-.07-.17s-.07-.22-.1-.33a3.38,3.38,0,0,1-.14-.9,3.44,3.44,0,0,1,.05-.45,1.37,1.37,0,0,1,0-.19.13.13,0,0,1,0-.06,2.64,2.64,0,0,1,.46-1.11l.12-.18.26-.32a1.14,1.14,0,0,0,.11-.11,6.8,6.8,0,0,1,.86-.77c1.46-1.08,3.71-1.64,6.68-1.65,5.79.5,10.14,2.6,13.3,6.42l.81,1,0,0,10.07-8.87C286.76,90.33,278.67,86.06,268.28,85.53Z"/><polygon class="cls-3" points="598.28 154.57 612.71 154.57 612.71 127.11 639.83 87.34 622.73 87.34 605.58 112.6 588.26 87.34 571.16 87.34 598.28 127.11 598.28 154.57"/><path class="cls-3" d="M498.4,87.34H485.25l-27.17,67.23h15.11l6.09-15.1h25.07l6,15.1h15Zm-13.62,38.82,7.05-17.62,7.05,17.62Z"/><path class="cls-6" d="M50.24,271.79a5.4,5.4,0,0,0-8.49,0,8.08,8.08,0,0,0,0,10,5.4,5.4,0,0,0,8.49,0,8,8,0,0,0,0-10Zm-2.17,7.79a2.35,2.35,0,0,1-2,1.13,2.43,2.43,0,0,1-2.1-1.13,4.78,4.78,0,0,1-.77-2.77,4.7,4.7,0,0,1,.77-2.75,2.44,2.44,0,0,1,2.1-1.12,2.35,2.35,0,0,1,2,1.11,4.6,4.6,0,0,1,.78,2.76,4.71,4.71,0,0,1-.78,2.77Z"/><path class="cls-6" d="M84.74,270.15v8.08A2.37,2.37,0,0,1,84,280a2.54,2.54,0,0,1-1.81.75,2.36,2.36,0,0,1-1.8-.71,2.57,2.57,0,0,1-.67-1.83v-8H76.46v8.2a5.74,5.74,0,0,0,1.39,3.89,4.52,4.52,0,0,0,3.53,1.49,4.35,4.35,0,0,0,3.26-1.21l.1-.1v1.12h3.11V270.15Z"/><path class="cls-6" d="M121.36,270.45a4.52,4.52,0,0,0-2.53-.72,3.2,3.2,0,0,0-2.49,1.12l-.1.12v-.91H113v13.48h3.22v-7.92a3,3,0,0,1,.72-2.18,2.3,2.3,0,0,1,1.71-.58,2.71,2.71,0,0,1,1.53.43l.46.31,1-3Z"/><polygon class="cls-6" points="14.84 265.03 9.45 272.66 3.99 265.03 0.03 265.03 7.78 275.94 7.78 283.12 7.81 283.54 11.06 283.54 11.06 275.94 18.81 265.03 14.84 265.03"/><path class="cls-3" d="M532.61,274.34A11.33,11.33,0,0,0,527,272a8,8,0,0,1-2.49-.82,1.47,1.47,0,0,1-.87-1.38c0-.2,0-.72.75-1.24a3.83,3.83,0,0,1,2.28-.57,6.29,6.29,0,0,1,4.12,1.73l.31.31,2.06-2.26-.27-.28a8.6,8.6,0,0,0-6.21-2.66,6.75,6.75,0,0,0-4.59,1.55,4.4,4.4,0,0,0-1.72,3.55,4.19,4.19,0,0,0,1.31,3c.84.86,2.55,1.59,5.07,2.18a11.69,11.69,0,0,1,3.63,1.29,1.82,1.82,0,0,1,.83,1.72,2.39,2.39,0,0,1-1.07,1.94,4.79,4.79,0,0,1-2.82.7,5.9,5.9,0,0,1-4.53-2.21l-.3-.36-2.22,2.39.26.28a8.57,8.57,0,0,0,6.67,3,7.88,7.88,0,0,0,5.29-1.63,5.18,5.18,0,0,0,1.91-4.07A5.11,5.11,0,0,0,532.61,274.34Z"/><path class="cls-2" d="M261.66,276.86a9,9,0,0,0-1.44-4.8,4.76,4.76,0,0,0-4.26-2.19,5,5,0,0,0-4.09,2,7.59,7.59,0,0,0-1.69,5,7.44,7.44,0,0,0,1.73,5,5.37,5.37,0,0,0,8.06.38l.27-.28-1.62-1.81-.26-.25-.29.23a2.64,2.64,0,0,1-3.75,0,3.29,3.29,0,0,1-1-2.26v-.07h8.32Zm-8.21-1.57v-.06a2.51,2.51,0,0,1,.78-1.78,2.44,2.44,0,0,1,1.82-.73,2.29,2.29,0,0,1,1.65.69,2.66,2.66,0,0,1,.79,1.82v.06Z"/><path class="cls-2" d="M362.7,264.78l-3.27,1.53v3.84h-2.22v3.14h2.22v6.44a4.81,4.81,0,0,0,.89,2.95,2.9,2.9,0,0,0,2.46,1.19h0a5.91,5.91,0,0,0,1.54-.26l.23-.08.45-2.84-.6.14a1.63,1.63,0,0,1-.49.05c-.73,0-1.15-.43-1.2-1.28v-6.31h2.81v-3.14H362.7Z"/><path class="cls-2" d="M329.72,278.23a2.37,2.37,0,0,1-.78,1.73,2.54,2.54,0,0,1-1.81.75,2.37,2.37,0,0,1-1.81-.71,2.61,2.61,0,0,1-.67-1.83v-8h-3.21v8.2a5.68,5.68,0,0,0,1.38,3.89,4.54,4.54,0,0,0,3.53,1.49,4.37,4.37,0,0,0,3.27-1.21l.1-.1v1.12h3.1V270.15h-3.1Z"/><path class="cls-2" d="M391,265.3a1.46,1.46,0,0,0-.47,1.1,1.66,1.66,0,0,0,.45,1.21,1.61,1.61,0,0,0,1.12.46,1.65,1.65,0,0,0,1.16-.49,1.61,1.61,0,0,0,.48-1.18,1.44,1.44,0,0,0-.48-1.1A1.63,1.63,0,0,0,391,265.3Z"/><rect class="cls-2" x="390.56" y="270.18" width="3.21" height="13.35"/><polygon class="cls-2" points="424.46 279.41 421.17 270.06 418.08 270.06 422.88 283.54 426.32 283.54 431.12 270.06 427.78 270.06 424.46 279.41"/><path class="cls-2" d="M465.72,276.86a8.89,8.89,0,0,0-1.44-4.8,4.75,4.75,0,0,0-4.26-2.19,5.08,5.08,0,0,0-4.09,2,7.64,7.64,0,0,0-1.68,5,7.48,7.48,0,0,0,1.72,5,5.27,5.27,0,0,0,4.2,2,5.2,5.2,0,0,0,3.86-1.64l.28-.28-1.62-1.8-.26-.27-.29.24a2.63,2.63,0,0,1-3.75,0,3.26,3.26,0,0,1-1-2.26v-.07h8.32Zm-8.2-1.57v-.06a2.56,2.56,0,0,1,.78-1.78,2.46,2.46,0,0,1,1.82-.73,2.33,2.33,0,0,1,1.66.69,2.65,2.65,0,0,1,.78,1.82v.06Z"/><path class="cls-2" d="M295.13,279.31l-.29.3a3.9,3.9,0,0,1-2.51,1.18,3.06,3.06,0,0,1-2.48-1.13,4.81,4.81,0,0,1,0-5.71,3.08,3.08,0,0,1,2.43-1.12,4.61,4.61,0,0,1,2.74,1.05l.32.25,1.74-2-.25-.27a6,6,0,0,0-4.58-2.09,5.89,5.89,0,0,0-4.6,2,8,8,0,0,0,0,10.13,5.88,5.88,0,0,0,4.6,2,6,6,0,0,0,4.7-2.19l.26-.3Z"/><polygon class="cls-2" points="178.89 275.17 184.55 275.17 184.55 271.9 178.89 271.9 178.89 268.25 189.1 268.25 189.1 265.03 175.62 265.03 175.62 283.54 189.4 283.54 189.4 280.32 178.89 280.32 178.89 275.17"/><polygon class="cls-2" points="222.54 275.95 226.28 270.07 222.69 270.07 220.69 273.12 218.77 270.07 215.05 270.07 218.9 276.02 214.02 283.54 217.65 283.54 220.69 278.8 223.74 283.54 223.97 283.54 226.5 283.54 227.38 283.52 222.54 275.95"/><path class="cls-3" d="M563.86,264.78l-3.27,1.53v3.84h-2.22v3.14h2.22v6.44a4.81,4.81,0,0,0,.89,2.95,2.9,2.9,0,0,0,2.46,1.19h0a5.91,5.91,0,0,0,1.54-.26l.24-.08.44-2.84-.6.14a1.63,1.63,0,0,1-.49.05c-.74,0-1.15-.43-1.2-1.28v-6.31h2.81v-3.14h-2.81Z"/><polygon class="cls-3" points="636.47 270.06 632.9 279.5 628.85 270.06 625.59 270.06 631.37 283.6 628.85 290.17 632.22 290.17 639.81 270.06 636.47 270.06"/><path class="cls-3" d="M596.91,269.73a8.5,8.5,0,0,0-4.14,1.21l-.33.18.15.34c.25.59.62,1.46.77,1.83l.17.44.41-.23a6,6,0,0,1,2.9-.75c1.56.1,2.34.85,2.38,2.31v.08l-.08,0a10.41,10.41,0,0,0-2.95-.41,5.8,5.8,0,0,0-3.7,1.15,3.83,3.83,0,0,0-1.47,3.23,4.74,4.74,0,0,0,1.24,3.37,4.63,4.63,0,0,0,3.59,1.33,6.61,6.61,0,0,0,3.31-.83l.09,0v.63h3v-8.17a5.48,5.48,0,0,0-1.54-4.07A5.06,5.06,0,0,0,596.91,269.73ZM594.54,278a3,3,0,0,1,1.9-.51,10.91,10.91,0,0,1,2.77.44h0v2.37h0c-2.11,1-3.83,1-4.71.21a1.6,1.6,0,0,1-.63-1.29A1.53,1.53,0,0,1,594.54,278Z"/><path class="cls-7" d="M230.06,188.89h4.25v11.4h13.33v-11.4h4.26v27.05h-4.26V204.15H234.31v11.79h-4.25Z"/><path class="cls-7" d="M267.63,202a14.3,14.3,0,1,1,14.3,13.91A13.94,13.94,0,0,1,267.63,202ZM292,202a10,10,0,1,0-10,10A10,10,0,0,0,292,202Z"/><path class="cls-7" d="M312,188.89h3.86L326.06,202l10.24-13.14h3.86v27.05h-4.25V196l-9.85,12.55L316.21,196v19.9H312Z"/><path class="cls-7" d="M356,188.89h19.13V193H360.28v7h11.78V204H360.28v7.92h15.26v4.06H356Z"/><path class="cls-7" d="M390.49,211.88l2.89-2.9a8.36,8.36,0,0,0,6.77,3.09c3.47,0,5.4-1.93,5.4-4,0-6-14.29-2.32-14.29-12.37,0-4.06,3.48-7.53,9.27-7.53a11.46,11.46,0,0,1,8.5,3.47l-2.9,2.9a7.35,7.35,0,0,0-5.6-2.51c-3.28,0-5,1.74-5,3.67,0,6,14.3,2.32,14.3,12.37,0,4.25-3.68,7.92-9.66,7.92C393.58,215.94,390.49,211.88,390.49,211.88Z"/><path class="cls-8" d="M200.3,203.94H0v-3.83H200.3Zm439.51-3.83H439.51v3.83h200.3Z"/></svg>