<?xml version="1.0" encoding="UTF-8"?>
<svg xmlns="http://www.w3.org/2000/svg" id="Layer_1" data-name="Layer 1" viewBox="0 0 1080 359.44">
  <defs>
    <style>.cls-1{fill:#0c416b;}.cls-2{fill:#34a3d7;}.cls-3{fill:#d6cbb9;}.cls-4{fill:#2ea3d6;}</style>
  </defs>
  <path class="cls-1" d="M485,200.48c-4.78-4.59-11.63-8.29-20.41-11.06l-20.75,18.33c2.07.61,4.25,1.2,6.57,1.76,9.58,2.35,15.95,4.67,18.93,6.9a7.76,7.76,0,0,1,3.5,7.32v.13A11.07,11.07,0,0,1,468,233c-3.27,2.43-7.94,3.62-13.86,3.51-9.78-.2-17.69-4.61-24.19-13.47l-1.34-1.83-.29.21-17.21,15.2c10.84,15.06,25.09,22.69,42.37,22.69,13,0,23.31-3.34,30.65-9.93a33,33,0,0,0,11.33-25.12v-.05A32.45,32.45,0,0,0,485,200.48Z"></path>
  <path class="cls-2" d="M450.94,145.62h-.12c-11,0-20.07,3.21-27,9.54s-10.48,13.9-10.25,22.24a27.41,27.41,0,0,0,7.85,19c4.25,4.48,11.61,8.22,22.39,11.38l5.38-4.69,15.43-13.62a104.08,104.08,0,0,0-11.67-2.92c-5.59-1.11-9.89-2.56-12.79-4.31a11.05,11.05,0,0,1-1.13-.78,5.55,5.55,0,0,1-1.63-1.78c-.1-.17-.19-.33-.27-.49l-.12-.28a4.08,4.08,0,0,1-.16-.54,5.15,5.15,0,0,1-.23-1.48,5.82,5.82,0,0,1,.07-.73c0-.1,0-.21,0-.32a.34.34,0,0,1,0-.1,4.78,4.78,0,0,1,.76-1.83,3.06,3.06,0,0,1,.21-.29,6.27,6.27,0,0,1,.43-.53l.17-.18a10.39,10.39,0,0,1,1.43-1.27c2.4-1.79,6.1-2.7,11-2.71,9.53.81,16.7,4.27,21.89,10.56l1.34,1.63,0,0,16.58-14.62C481.36,153.53,468,146.49,450.94,145.62Z"></path>
  <path class="cls-2" d="M43.07,218.71,0,145.57H28.44l26.5,48.76h.65l26.49-48.76h28.45L67.45,218.71v40.64H43.07Z"></path>
  <path class="cls-2" d="M219.11,145.57h84.52v22.76H243.49v21.94h47.14v21.94H243.49v24.38h61.77v22.76H219.11Z"></path>
  <path class="cls-1" d="M632.26,168.33H599.75V145.57h89.4v22.76H656.64v91H632.26Z"></path>
  <path class="cls-1" d="M814.85,145.57h27.63l43.89,113.78h-26l-9.75-26H806.73l-9.76,26H771Zm27.63,65.83L829,174h-.65L814.85,211.4Z"></path>
  <path class="cls-1" d="M1012.55,218.71l-43.08-73.14h28.45l26.49,48.76h.65l26.5-48.76H1080l-43.07,73.14v40.64h-24.38Z"></path>
  <path class="cls-1" d="M373.73,312.05h4.92v20.36h25.62V312.05h4.92v46h-4.92V337H378.65v21h-4.92Z"></path>
  <path class="cls-1" d="M434.57,335.25A22.78,22.78,0,1,1,457.34,358,22.68,22.68,0,0,1,434.57,335.25Zm40.8,0c0-10.44-7.91-18.35-18-18.35s-18,7.91-18,18.35,7.91,18.34,18,18.34S475.37,345.69,475.37,335.25Z"></path>
  <path class="cls-1" d="M520,316.65H505.6v-4.6h33.82v4.6H525V358H520Z"></path>
  <path class="cls-1" d="M564.9,312.05h31.52v4.6h-26.6v15.1h21.35v4.6H569.82v17.08h27.26V358H564.9Z"></path>
  <path class="cls-1" d="M622.26,312.05h4.93v41.38h23.64V358H622.26Z"></path>
  <path class="cls-1" d="M676.26,351.32l2.87-3.26a15.08,15.08,0,0,0,12.14,5.49c6.7,0,10.21-3.51,10.21-8.3,0-11.49-24.26-5.1-24.26-21.07,0-6.51,5.49-12.13,14.37-12.13a17.33,17.33,0,0,1,13.08,5.75L701.48,321a12.57,12.57,0,0,0-9.89-4.47c-6.13,0-9.58,3.64-9.58,7.66,0,11.5,24.26,5.11,24.26,21.07,0,7.35-5.43,12.77-15,12.77C681.05,358,676.26,351.32,676.26,351.32Z"></path>
  <path class="cls-3" d="M463.43,24.89h49a0,0,0,0,1,0,0V85.47a0,0,0,0,1,0,0H455.09a0,0,0,0,1,0,0V33.23A8.34,8.34,0,0,1,463.43,24.89Z"></path>
  <path class="cls-1" d="M503.43.68h74.19a7.66,7.66,0,0,1,7.66,7.66V85.47a0,0,0,0,1,0,0h-90.1a0,0,0,0,1,0,0V8.92A8.24,8.24,0,0,1,503.43.68Z"></path>
  <path class="cls-4" d="M547.33,30.31h69.4a8.17,8.17,0,0,1,8.17,8.17v47a0,0,0,0,1,0,0H540.24a0,0,0,0,1,0,0V37.41A7.1,7.1,0,0,1,547.33,30.31Z"></path>
</svg>
